<?xml version="1.0" standalone="no"?>
<!DOCTYPE svg PUBLIC "-//W3C//DTD SVG 20010904//EN"
 "http://www.w3.org/TR/2001/REC-SVG-20010904/DTD/svg10.dtd">
<svg version="1.0" xmlns="http://www.w3.org/2000/svg"
 width="512.000000pt" height="512.000000pt" viewBox="0 0 512.000000 512.000000"
 preserveAspectRatio="xMidYMid meet">

<g transform="translate(0.000000,512.000000) scale(0.100000,-0.100000)"
fill="#fff" stroke="none">
<path d="M3225 4891 c-33 -4 -70 -11 -81 -15 -28 -9 -42 -63 -54 -204 -9 -94
-7 -110 9 -148 30 -66 103 -92 178 -63 15 6 60 14 99 18 57 7 84 17 138 49
111 67 199 77 245 28 12 -12 41 -74 65 -137 80 -210 194 -414 306 -548 51 -60
58 -73 39 -67 -151 44 -262 44 -354 2 -62 -28 -153 -109 -180 -161 -17 -29
-23 -33 -45 -27 -14 3 -83 7 -155 7 -107 0 -143 -4 -200 -22 -86 -27 -173 -82
-242 -152 l-51 -51 -35 39 c-79 87 -136 225 -163 391 -23 144 -42 207 -87 295
-47 90 -143 195 -219 239 -186 108 -437 106 -623 -5 -124 -73 -288 -254 -408
-449 -62 -102 -141 -266 -134 -283 3 -9 50 -19 140 -31 74 -10 139 -21 145
-25 5 -3 20 -40 32 -81 30 -103 53 -166 86 -228 23 -44 28 -70 33 -160 4 -59
10 -113 14 -120 12 -18 49 -15 109 8 29 11 55 20 57 20 2 0 0 -20 -3 -44 -7
-46 1 -56 45 -56 10 0 19 -4 19 -9 0 -19 106 -53 180 -58 99 -7 176 14 231 64
51 46 60 64 119 237 68 199 85 234 117 242 38 10 58 -7 57 -47 -2 -49 -126
-390 -163 -448 -50 -77 -113 -119 -213 -141 -46 -11 -84 -11 -185 -1 -200 18
-378 -6 -509 -71 -118 -57 -224 -177 -294 -332 l-30 -66 -52 0 c-172 0 -317
-114 -377 -295 -19 -59 -22 -87 -19 -178 2 -98 0 -110 -17 -123 -26 -19 -41
-18 -64 5 -35 35 -39 170 -9 336 11 60 10 61 -32 144 -58 117 -138 243 -218
348 -38 48 -74 98 -80 110 -39 72 18 157 147 223 60 30 76 46 135 135 60 91
69 115 63 166 -7 58 -37 120 -72 147 -28 22 -142 52 -198 52 -43 0 -72 -31
-172 -185 -204 -314 -221 -357 -211 -555 15 -298 66 -721 108 -890 55 -225
180 -451 342 -613 134 -136 200 -156 412 -126 324 45 626 195 749 373 20 30
50 60 66 66 68 29 147 -39 248 -212 89 -152 106 -167 305 -262 240 -116 276
-161 262 -326 -19 -216 -20 -201 11 -260 33 -62 94 -114 154 -130 26 -7 207
-10 542 -8 l502 3 80 28 c159 56 274 157 345 302 72 145 148 474 171 735 12
149 9 214 -27 565 -40 387 -76 594 -139 793 -19 58 -33 107 -32 107 1 1 31 6
67 12 154 25 338 133 512 301 119 115 194 207 235 290 23 48 25 60 20 135 -14
215 -156 515 -333 706 -157 169 -744 621 -877 674 -47 19 -75 21 -287 23 -129
1 -262 -1 -295 -5z m-120 -2053 c82 -71 222 -272 303 -434 92 -183 174 -447
188 -605 8 -78 -2 -99 -46 -99 -38 0 -48 15 -60 101 -49 327 -215 689 -424
927 -59 66 -67 93 -39 124 23 25 37 23 78 -14z"/>
</g>
</svg>
